# xmcd CD database file generated by OrangeCD 6.4
#
# Track frame offsets:
#	150
#	8807
#	45167
#	54645
#	111310
#	131542
#	174127
#	190512
#
# Disc length: 2862 seconds
#
# Revision: 1
# Processed by: cddbd v1.5.2PL0 Copyright (c) Steve Scherf et al.
# Submitted via: OrangeCD 6.4
#
DISCID=580b2c08
DTITLE=Johnny Winter - The Masters
DYEAR=1998
DGENRE=Blues
TTITLE0=Hideaway
TTITLE1=Somethin' Goin' On Wrong (Dust My Broom)
TTITLE2=Diving Duck Blues
TTITLE3=You Done Lost Your Good Thing Now/Mean Mistreater
TTITLE4=Look Up
TTITLE5=Mean Town Blues
TTITLE6=Johnny B Goode
TTITLE7=E Z Rider
EXTD=
EXTT0=
EXTT1=
EXTT2=
EXTT3=
EXTT4=
EXTT5=
EXTT6=
EXTT7=
PLAYORDER=
